<svg width="31" height="27" viewBox="0 0 31 27" fill="none" xmlns="http://www.w3.org/2000/svg">
<path d="M25.9633 0.617312C26.9531 1.02486 27.8525 1.6222 28.61 2.37521C29.3678 3.12787 29.969 4.02152 30.3791 5.0051C30.7893 5.98868 31.0004 7.04291 31.0004 8.10758C31.0004 9.17225 30.7893 10.2265 30.3791 11.2101C29.969 12.1936 29.3678 13.0873 28.61 13.84L27.0379 15.402L15.4999 26.8667L3.96191 15.402L15.4999 3.93725L17.072 2.37521C17.8294 1.6222 18.7288 1.02486 19.7186 0.617312C20.7085 0.209765 21.7695 0 22.841 0C23.9124 0 24.9734 0.209765 25.9633 0.617312Z" fill="#008250"/>
<path d="M13.9276 2.37443L15.4996 3.93646L27.0377 15.4012L15.4996 26.8659L3.96162 15.4012L2.3896 13.8392C0.859566 12.3188 0 10.2569 0 8.1068C0 5.95674 0.859566 3.89474 2.3896 2.37443C3.91964 0.854107 5.99481 0 8.15861 0C10.3224 0 12.3976 0.854107 13.9276 2.37443Z" fill="#E40000"/>
<path d="M16.1302 3.29854L27.6984 14.7775L23.0101 19.4657L15.5001 3.92863L16.1302 3.29854Z" fill="#FFB5B5"/>
<path d="M16.861 2.58368L28.0603 14.4163L25.5359 16.9408L15.5005 3.92724L16.861 2.58368Z" fill="#F4F4F4"/>
<path d="M17.1201 2.30762L28.6437 13.8312L27.0309 15.4439L15.5074 3.92036L17.1201 2.30762Z" fill="white"/>
</svg>
