<svg width="1441" height="426" viewBox="0 0 1441 426" fill="none" xmlns="http://www.w3.org/2000/svg">
<path fill-rule="evenodd" clip-rule="evenodd" d="M1440.5 173C1374.17 232.333 1202.5 351 1046.5 351C920.823 351 747.992 270.849 567.507 187.149C370.298 95.6933 163.952 0 0 0L0 269C161.04 269 413.224 312.617 635.565 351.073C810.852 381.391 967.591 408.5 1046.5 408.5C1189.7 408.5 1367.5 339 1440.5 290.5V173Z" fill="#FFEF9E"/>
<path d="M1046.5 426C1238.5 426 1410 346 1440.5 326.5V290.5C1367.5 339 1189.7 408.5 1046.5 408.5C967.591 408.5 810.852 381.391 635.565 351.073C413.224 312.617 161.04 269 0 269V290.5C287.5 290.5 808.5 426 1046.5 426Z" fill="#FFE86F"/>
</svg>
