<svg width="20" height="20" viewBox="0 0 20 20" fill="none" xmlns="http://www.w3.org/2000/svg">
<path fill-rule="evenodd" clip-rule="evenodd" d="M9.65 1.3C9.30921 1.3 8.93562 1.45269 8.54112 1.82812C8.14327 2.20674 7.75541 2.78534 7.41555 3.55003C7.1056 4.24743 6.84616 5.07576 6.65571 6L12.6443 6C12.4538 5.07576 12.1944 4.24743 11.8844 3.55003C11.5446 2.78534 11.1567 2.20674 10.7589 1.82812C10.3644 1.45269 9.99079 1.3 9.65 1.3ZM6.2276 3.02205C5.84629 3.87999 5.54122 4.88906 5.33057 6L2.1379 6C3.10019 4.02317 4.81981 2.48293 6.91931 1.75672C6.66353 2.13456 6.43271 2.56053 6.2276 3.02205ZM1.65 7.3L1.63529 7.29983C1.41706 8.0453 1.3 8.83398 1.3 9.65C1.3 10.466 1.41706 11.2547 1.63529 12.0002C1.64018 12.0001 1.64508 12 1.65 12H5.13325C5.04599 11.2463 5 10.4587 5 9.65C5 8.84129 5.04599 8.05369 5.13325 7.3L1.65 7.3ZM5.33057 13.3H2.1379C3.10019 15.2768 4.81981 16.8171 6.91931 17.5433C6.66354 17.1654 6.43271 16.7395 6.2276 16.278C5.84629 15.42 5.54122 14.4109 5.33057 13.3ZM6.65572 13.3L12.6443 13.3C12.4538 14.2242 12.1944 15.0526 11.8844 15.75C11.5446 16.5147 11.1567 17.0933 10.7589 17.4719C10.3644 17.8473 9.99079 18 9.65 18C9.30921 18 8.93562 17.8473 8.54112 17.4719C8.14327 17.0933 7.75541 16.5147 7.41555 15.75C7.1056 15.0526 6.84616 14.2242 6.65572 13.3ZM12.8575 12H6.44255C6.35003 11.256 6.3 10.4679 6.3 9.65C6.3 8.83211 6.35003 8.04401 6.44255 7.3L12.8575 7.3C12.95 8.04401 13 8.83211 13 9.65C13 10.4679 12.95 11.256 12.8575 12ZM13.9694 13.3C13.7588 14.4109 13.4537 15.42 13.0724 16.278C12.8673 16.7395 12.6365 17.1654 12.3807 17.5433C14.4802 16.8171 16.1998 15.2768 17.1621 13.3H13.9694ZM17.6647 12.0002C17.6598 12.0001 17.6549 12 17.65 12H14.1668C14.254 11.2463 14.3 10.4587 14.3 9.65C14.3 8.84129 14.254 8.05369 14.1668 7.3L17.65 7.3L17.6647 7.29984C17.8829 8.0453 18 8.83398 18 9.65C18 10.466 17.8829 11.2547 17.6647 12.0002ZM12.3807 1.75672C14.4802 2.48293 16.1998 4.02317 17.1621 6L13.9694 6C13.7588 4.88906 13.4537 3.87999 13.0724 3.02205C12.8673 2.56053 12.6365 2.13456 12.3807 1.75672ZM9.65 19.3C14.9795 19.3 19.3 14.9795 19.3 9.65C19.3 4.32045 14.9795 0 9.65 0C4.32045 0 0 4.32045 0 9.65C0 14.9795 4.32045 19.3 9.65 19.3Z" fill="#9D9D9D"/>
</svg>
