<svg width="20" height="20" viewBox="0 0 20 20" fill="none" xmlns="http://www.w3.org/2000/svg">
<path fill-rule="evenodd" clip-rule="evenodd" d="M9.99998 1.3C9.65919 1.3 9.28559 1.45269 8.8911 1.82812C8.49325 2.20674 8.10539 2.78534 7.76553 3.55003C7.45557 4.24743 7.19614 5.07576 7.00569 6L12.9943 6C12.8038 5.07576 12.5444 4.24743 12.2344 3.55003C11.8946 2.78534 11.5067 2.20674 11.1089 1.82812C10.7144 1.45269 10.3408 1.3 9.99998 1.3ZM6.57757 3.02205C6.19627 3.87999 5.89119 4.88906 5.68055 6L2.48787 6C3.45017 4.02317 5.16979 2.48293 7.26929 1.75672C7.01351 2.13456 6.78269 2.56053 6.57757 3.02205ZM1.99998 7.3L1.98527 7.29983C1.76703 8.0453 1.64998 8.83398 1.64998 9.65C1.64998 10.466 1.76703 11.2547 1.98527 12.0002C1.99016 12.0001 1.99506 12 1.99998 12H5.48322C5.39597 11.2463 5.34998 10.4587 5.34998 9.65C5.34998 8.84129 5.39597 8.05369 5.48322 7.3L1.99998 7.3ZM5.68055 13.3H2.48787C3.45017 15.2768 5.16979 16.8171 7.26929 17.5433C7.01351 17.1654 6.78269 16.7395 6.57757 16.278C6.19627 15.42 5.89119 14.4109 5.68055 13.3ZM7.00569 13.3L12.9943 13.3C12.8038 14.2242 12.5444 15.0526 12.2344 15.75C11.8946 16.5147 11.5067 17.0933 11.1089 17.4719C10.7144 17.8473 10.3408 18 9.99998 18C9.65919 18 9.28559 17.8473 8.8911 17.4719C8.49325 17.0933 8.10539 16.5147 7.76553 15.75C7.45557 15.0526 7.19614 14.2242 7.00569 13.3ZM13.2074 12H6.79252C6.7 11.256 6.64998 10.4679 6.64998 9.65C6.64998 8.83211 6.7 8.04401 6.79252 7.3L13.2074 7.3C13.2999 8.04401 13.35 8.83211 13.35 9.65C13.35 10.4679 13.2999 11.256 13.2074 12ZM14.3194 13.3C14.1088 14.4109 13.8037 15.42 13.4224 16.278C13.2173 16.7395 12.9864 17.1654 12.7307 17.5433C14.8302 16.8171 16.5498 15.2768 17.5121 13.3H14.3194ZM18.0147 12.0002C18.0098 12.0001 18.0049 12 18 12H14.5167C14.604 11.2463 14.65 10.4587 14.65 9.65C14.65 8.84129 14.604 8.05369 14.5167 7.3L18 7.3L18.0147 7.29984C18.2329 8.0453 18.35 8.83398 18.35 9.65C18.35 10.466 18.2329 11.2547 18.0147 12.0002ZM12.7307 1.75672C14.8302 2.48293 16.5498 4.02317 17.5121 6L14.3194 6C14.1088 4.88906 13.8037 3.87999 13.4224 3.02205C13.2173 2.56053 12.9864 2.13456 12.7307 1.75672ZM9.99998 19.3C15.3295 19.3 19.65 14.9795 19.65 9.65C19.65 4.32045 15.3295 0 9.99998 0C4.67043 0 0.349976 4.32045 0.349976 9.65C0.349976 14.9795 4.67043 19.3 9.99998 19.3Z" fill="white"/>
</svg>
